<svg xmlns="http://www.w3.org/2000/svg" viewBox="0 0 160.50 41.00" width="160" height="41" role="img" aria-hidden="true" fill="#fff"><!-- Tribute (mark + буквы) --><defs><linearGradient id="dtpTribute" x1="0" y1="0" x2="0" y2="1"><stop offset="0" stop-color="#79c9ff"/><stop offset="1" stop-color="#007aff"/></linearGradient></defs><path transform="translate(0.00,0.00) scale(1.4000,1.3667) translate(-0.00,-0.00)" d="M 15 0 C 23.2843 0 30 6.7157 30 15 C 30 23.2843 23.2843 30 15 30 C 6.7157 30 0 23.2843 0 15 C 0 6.7157 6.7157 0 15 0"/><path opacity="0.65" transform="translate(12.35,6.94) scale(1.4005,1.3668) translate(-0.00,-0.00)" d="M 4.7932 2.0269 C 5.2102 0.8629 5.4182 0.2799 5.7372 0.1099 C 5.8733 0.0377 6.0251 0 6.1792 0 C 6.3333 0 6.485 0.0377 6.6212 0.1099 C 6.9402 0.2799 7.1482 0.8629 7.5652 2.0269 C 8.3132 4.1189 9.2152 6.6899 9.8752 8.7219 C 10.5896 10.9559 11.274 13.1994 11.9282 15.4519 C 12.2812 16.6579 12.4582 17.2599 12.3012 17.5859 C 12.2339 17.7244 12.1336 17.8443 12.0091 17.935 C 11.8846 18.0256 11.7397 18.0843 11.5872 18.1059 C 11.2292 18.1559 10.7072 17.8019 9.6642 17.0929 L 7.0222 15.2999 C 6.7172 15.0929 6.5652 14.9899 6.4012 14.9499 C 6.2553 14.9143 6.103 14.9143 5.9572 14.9499 C 5.7932 14.9899 5.6412 15.0929 5.3372 15.2999 L 2.6942 17.0929 C 1.6512 17.8019 1.1292 18.1559 0.7712 18.1059 C 0.6188 18.0842 0.4742 18.0254 0.3499 17.9347 C 0.2255 17.8441 0.1254 17.7243 0.0582 17.5859 C -0.0998 17.2599 0.0772 16.6579 0.4302 15.4529 C 1.0522 13.3289 1.8262 10.7399 2.4822 8.7219 C 3.1422 6.6899 4.0452 4.1189 4.7932 2.0269 Z" fill="url(#dtpTribute)"/><path transform="translate(7.71,15.21) scale(1.4000,1.3669) translate(-0.00,-0.00)" d="M 16.5481 0.129 C 17.7851 0.165 18.4031 0.183 18.6641 0.434 C 18.7747 0.5411 18.8573 0.6737 18.9049 0.8201 C 18.9525 0.9665 18.9635 1.1223 18.9371 1.274 C 18.8731 1.631 18.3841 2.009 17.4051 2.765 C 15.6471 4.123 13.4811 5.775 11.7521 7.032 C 9.8479 8.4018 7.9254 9.7459 5.9851 11.064 C 4.9481 11.772 4.4301 12.126 4.0721 12.076 C 3.9197 12.0547 3.7747 11.9964 3.6501 11.9061 C 3.5254 11.8158 3.4248 11.6962 3.3571 11.558 C 3.1981 11.234 3.3741 10.628 3.7251 9.417 L 4.6151 6.35 C 4.7171 5.996 4.7681 5.82 4.7551 5.651 C 4.7437 5.5017 4.6967 5.3574 4.6181 5.23 C 4.5291 5.085 4.3841 4.973 4.0941 4.747 L 1.5711 2.788 C 0.5751 2.015 0.0771 1.628 0.0141 1.273 C -0.0125 1.1213 -0.0014 0.9653 0.0464 0.8188 C 0.0942 0.6724 0.1772 0.5399 0.2881 0.433 C 0.5491 0.183 1.1771 0.164 2.4321 0.128 C 4.6441 0.063 7.3451 0 9.4681 0 C 11.6041 0 14.3281 0.064 16.5481 0.129 Z" fill="url(#dtpTribute)"/><path transform="translate(48.84,9.87) scale(1.1990,1.1677) translate(-0.00,-0.00)" d="M 5.447 18.848 L 5.447 3.253 L 0 3.253 L 0 0 L 14.851 0 L 14.851 3.253 L 9.391 3.253 L 9.391 18.848 L 5.447 18.848 Z"/><path transform="translate(66.64,15.19) scale(1.1990,1.1677) translate(-0.00,-0.00)" d="M 0 14.289 L 0 0.287 L 3.814 0.287 L 3.814 2.73 L 3.892 2.73 C 4.102 1.868 4.48 1.197 5.029 0.718 C 5.577 0.239 6.261 0 7.079 0 C 7.289 0 7.489 0.013 7.68 0.04 C 7.872 0.065 8.037 0.1 8.176 0.144 L 8.176 3.5 C 7.9819 3.4302 7.7807 3.3822 7.576 3.357 C 7.3171 3.312 7.0548 3.2899 6.792 3.291 C 6.165 3.291 5.629 3.413 5.185 3.657 C 4.741 3.901 4.402 4.258 4.166 4.728 C 3.931 5.198 3.814 5.773 3.814 6.452 L 3.814 14.289 L 0 14.289 Z"/><path transform="translate(78.12,8.79) scale(1.1990,1.1677) translate(-0.00,-0.00)" d="M 0.1301 19.7755 L 0.1301 5.7735 L 3.9441 5.7735 L 3.9441 19.7755 L 0.1301 19.7755 Z M 2.0371 3.9715 C 1.7681 3.9778 1.5006 3.9288 1.2512 3.8277 C 1.0018 3.7265 0.7758 3.5754 0.5871 3.3835 C 0.399 3.203 0.2498 2.9857 0.1489 2.7453 C 0.0479 2.5049 -0.0027 2.2463 0.0001 1.9855 C 0.0001 1.4375 0.1961 0.9715 0.5871 0.5885 C 0.7758 0.3967 1.0018 0.2455 1.2512 0.1444 C 1.5006 0.0433 1.7681 -0.0057 2.0371 0.0005 C 2.3062 -0.0057 2.5736 0.0433 2.823 0.1444 C 3.0724 0.2455 3.2984 0.3967 3.4871 0.5885 C 3.8791 0.9715 4.0751 1.4375 4.0751 1.9855 C 4.0778 2.2464 4.0269 2.505 3.9258 2.7454 C 3.8247 2.9858 3.6754 3.203 3.4871 3.3835 C 3.2984 3.5754 3.0724 3.7265 2.823 3.8277 C 2.5736 3.9288 2.3062 3.9778 2.0371 3.9715 Z"/><path transform="translate(85.89,9.87) scale(1.1990,1.1677) translate(-0.00,-0.00)" d="M 8.202 19.136 C 7.5733 19.1433 6.9488 19.0323 6.361 18.809 C 5.8192 18.6011 5.3225 18.2908 4.898 17.895 C 4.4734 17.4851 4.1318 16.9972 3.892 16.458 L 3.814 16.458 L 3.814 18.848 L 0 18.848 L 0 0 L 3.814 0 L 3.814 7.276 L 3.892 7.276 C 4.153 6.71 4.492 6.226 4.911 5.826 C 5.329 5.416 5.816 5.103 6.374 4.886 C 6.9622 4.6642 7.5864 4.5533 8.215 4.559 C 9.391 4.559 10.401 4.851 11.245 5.434 C 12.099 6.009 12.756 6.84 13.218 7.929 C 13.679 9.009 13.91 10.31 13.91 11.834 L 13.91 11.847 C 13.91 13.362 13.68 14.664 13.218 15.753 C 12.756 16.841 12.098 17.677 11.246 18.261 C 10.392 18.844 9.378 19.136 8.202 19.136 Z M 6.935 15.975 C 7.571 15.975 8.119 15.809 8.581 15.478 C 9.043 15.138 9.4 14.66 9.652 14.042 C 9.905 13.423 10.031 12.692 10.031 11.847 L 10.031 11.834 C 10.031 10.981 9.905 10.249 9.652 9.64 C 9.4 9.022 9.038 8.547 8.568 8.216 C 8.106 7.886 7.562 7.72 6.935 7.72 C 6.317 7.72 5.773 7.89 5.303 8.23 C 4.841 8.56 4.475 9.035 4.205 9.653 C 3.945 10.263 3.814 10.99 3.814 11.834 L 3.814 11.847 C 3.814 12.692 3.944 13.423 4.205 14.042 C 4.467 14.66 4.832 15.139 5.303 15.478 C 5.773 15.809 6.317 15.975 6.935 15.975 Z"/><path transform="translate(104.70,15.53) scale(1.1990,1.1677) translate(-0.00,-0.00)" d="M 4.833 14.29 C 3.805 14.29 2.93 14.08 2.207 13.663 C 1.491 13.2338 0.9185 12.6018 0.562 11.847 C 0.187 11.063 0 10.127 0 9.039 L 0 0 L 3.814 0 L 3.814 8.242 C 3.814 9.156 4.027 9.866 4.454 10.372 C 4.889 10.876 5.534 11.129 6.387 11.129 C 6.814 11.129 7.197 11.055 7.537 10.907 C 7.885 10.759 8.181 10.55 8.425 10.28 C 8.669 10.001 8.855 9.675 8.986 9.3 C 9.117 8.917 9.182 8.499 9.182 8.046 L 9.182 0 L 12.996 0 L 12.996 14.002 L 9.182 14.002 L 9.182 11.69 L 9.104 11.69 C 8.8698 12.2074 8.542 12.6769 8.137 13.075 C 7.7332 13.4744 7.2477 13.7817 6.714 13.976 C 6.165 14.186 5.538 14.29 4.833 14.29 Z"/><path transform="translate(121.98,11.53) scale(1.1990,1.1677) translate(-0.00,-0.00)" d="M 6.517 17.712 C 4.967 17.712 3.818 17.385 3.069 16.732 C 2.32 16.079 1.946 15.003 1.946 13.506 L 1.946 6.296 L 0 6.296 L 0 3.422 L 1.946 3.422 L 1.946 0 L 5.799 0 L 5.799 3.422 L 8.359 3.422 L 8.359 6.296 L 5.799 6.296 L 5.799 13.088 C 5.799 13.741 5.942 14.198 6.23 14.459 C 6.526 14.712 6.961 14.839 7.536 14.839 C 7.71 14.839 7.863 14.834 7.993 14.825 C 8.124 14.808 8.246 14.79 8.359 14.773 L 8.359 17.568 C 8.15 17.603 7.889 17.633 7.575 17.659 C 7.2236 17.6965 6.8704 17.7142 6.517 17.712 Z"/><path transform="translate(133.55,15.19) scale(1.1990,1.1677) translate(-0.00,-0.00)" d="M 6.884 14.577 C 5.456 14.577 4.228 14.285 3.201 13.702 C 2.173 13.109 1.381 12.269 0.823 11.181 C 0.275 10.092 0 8.803 0 7.314 L 0 7.301 C 0 5.812 0.275 4.524 0.823 3.435 C 1.381 2.338 2.16 1.493 3.161 0.901 C 4.171 0.301 5.36 0 6.727 0 C 8.094 0 9.274 0.292 10.267 0.875 C 11.262 1.4432 12.0665 2.2932 12.579 3.318 C 13.127 4.371 13.402 5.603 13.402 7.014 L 13.402 8.189 L 1.868 8.189 L 1.868 5.786 L 11.599 5.786 L 9.784 8.033 L 9.784 6.569 C 9.784 5.75 9.657 5.067 9.405 4.519 C 9.152 3.961 8.8 3.543 8.347 3.264 C 7.903 2.986 7.385 2.846 6.792 2.846 C 6.2 2.846 5.674 2.99 5.212 3.277 C 4.759 3.565 4.402 3.987 4.141 4.544 C 3.888 5.093 3.762 5.768 3.762 6.569 L 3.762 8.045 C 3.762 8.82 3.888 9.482 4.141 10.03 C 4.402 10.579 4.772 11.001 5.251 11.297 C 5.73 11.585 6.3 11.728 6.962 11.728 C 7.485 11.728 7.938 11.646 8.321 11.48 C 8.704 11.315 9.017 11.106 9.261 10.853 C 9.505 10.6 9.67 10.343 9.757 10.083 L 9.784 10.004 L 13.284 10.004 L 13.245 10.148 C 13.1268 10.6961 12.9194 11.2211 12.631 11.702 C 12.3046 12.2499 11.8845 12.7363 11.39 13.139 C 10.876 13.574 10.245 13.923 9.496 14.184 C 8.756 14.445 7.885 14.577 6.884 14.577 Z"/></svg>